<svg xmlns="http://www.w3.org/2000/svg" version="1.1" xmlns:xlink="http://www.w3.org/1999/xlink" xmlns:svgjs="http://svgjs.dev/svgjs" width="2000" height="489" viewBox="0 0 2000 489"><g transform="matrix(1,0,0,1,-1.2121212121207918,-0.24251561425103318)"><svg viewBox="0 0 396 97" data-background-color="#ffffff" preserveAspectRatio="xMidYMid meet" height="489" width="2000" xmlns="http://www.w3.org/2000/svg" xmlns:xlink="http://www.w3.org/1999/xlink"><g id="tight-bounds" transform="matrix(1,0,0,1,0.23999999999992383,0.04810636928905865)"><svg viewBox="0 0 395.5199999999999 96.90350625322407" height="96.90350625322407" width="395.5199999999999"><g><svg viewBox="0 0 572.8530234865193 140.35059300061752" height="96.90350625322407" width="395.5199999999999"><g transform="matrix(1,0,0,1,177.33302348651935,31.011605055708486)"><svg viewBox="0 0 395.52 78.32738288920055" height="78.32738288920055" width="395.52"><g id="textblocktransform"><svg viewBox="0 0 395.52 78.32738288920055" height="78.32738288920055" width="395.52" id="textblock"><g><svg viewBox="0 0 395.52 78.32738288920055" height="78.32738288920055" width="395.52"><g transform="matrix(1,0,0,1,0,0)"><svg width="395.52" viewBox="0.4 -34.55 178.23 35.3" height="78.32738288920055" data-palette-color="#000000"><path d="M0.4-34.55L21.95-34.55 21.25-29.55 14.15-29.55 14.15 0 7.8 0 7.8-29.55 0.4-29.55 0.4-34.55ZM43-26.45L43 0 37.65 0 37.35-3.35Q36.1-1.3 34.55-0.28 33 0.75 30.95 0.75L30.95 0.75Q28.05 0.75 26.37-1.3 24.7-3.35 24.7-6.65L24.7-6.65 24.7-26.45 30.85-26.45 30.85-7Q30.85-3.9 32.95-3.9L32.95-3.9Q34.15-3.9 35.1-4.83 36.05-5.75 36.85-7.45L36.85-7.45 36.85-26.45 43-26.45ZM61.05-27.15Q63.89-27.15 65.55-25.1 67.19-23.05 67.19-19.6L67.19-19.6 67.19 0 61.05 0 61.05-18.9Q61.05-20.8 60.52-21.63 59.99-22.45 58.99-22.45L58.99-22.45Q56.89-22.45 54.84-18.5L54.84-18.5 54.84 0 48.7 0 48.7-26.45 54.05-26.45 54.49-23Q55.84-25.1 57.37-26.13 58.89-27.15 61.05-27.15L61.05-27.15ZM91.59-13.85Q91.59-13.4 91.44-11.3L91.44-11.3 77.79-11.3Q77.99-7.2 79.22-5.58 80.44-3.95 82.69-3.95L82.69-3.95Q84.24-3.95 85.49-4.48 86.74-5 88.19-6.15L88.19-6.15 90.74-2.65Q87.24 0.75 82.34 0.75L82.34 0.75Q77.14 0.75 74.37-2.85 71.59-6.45 71.59-13L71.59-13Q71.59-19.55 74.24-23.35 76.89-27.15 81.74-27.15L81.74-27.15Q86.39-27.15 88.99-23.78 91.59-20.4 91.59-13.85L91.59-13.85ZM85.59-15.3L85.59-15.65Q85.59-19.4 84.69-21.13 83.79-22.85 81.79-22.85L81.79-22.85Q79.94-22.85 78.97-21.18 77.99-19.5 77.79-15.3L77.79-15.3 85.59-15.3ZM102.39 0L96.04 0 96.04-34.55 112.74-34.55 112.04-29.8 102.39-29.8 102.39-19.25 110.79-19.25 110.79-14.5 102.39-14.5 102.39 0ZM134.19-26.45L134.19 0 128.84 0 128.54-3.35Q127.29-1.3 125.74-0.28 124.19 0.75 122.14 0.75L122.14 0.75Q119.24 0.75 117.56-1.3 115.89-3.35 115.89-6.65L115.89-6.65 115.89-26.45 122.04-26.45 122.04-7Q122.04-3.9 124.14-3.9L124.14-3.9Q125.34-3.9 126.29-4.83 127.24-5.75 128.04-7.45L128.04-7.45 128.04-26.45 134.19-26.45ZM147.24-27.15Q151.94-27.15 155.19-24.05L155.19-24.05 152.84-20.7Q151.44-21.7 150.19-22.2 148.94-22.7 147.64-22.7L147.64-22.7Q146.19-22.7 145.36-21.93 144.54-21.15 144.54-19.8L144.54-19.8Q144.54-18.45 145.46-17.63 146.39-16.8 149.19-15.7L149.19-15.7Q152.64-14.35 154.29-12.5 155.94-10.65 155.94-7.55L155.94-7.55Q155.94-3.7 153.24-1.48 150.54 0.75 146.39 0.75L146.39 0.75Q143.69 0.75 141.41-0.23 139.14-1.2 137.44-2.95L137.44-2.95 140.44-6.25Q143.24-3.8 146.14-3.8L146.14-3.8Q147.79-3.8 148.74-4.67 149.69-5.55 149.69-7.1L149.69-7.1Q149.69-8.25 149.29-8.97 148.89-9.7 147.89-10.33 146.89-10.95 144.89-11.7L144.89-11.7Q141.44-13.05 139.96-14.85 138.49-16.65 138.49-19.45L138.49-19.45Q138.49-22.8 140.86-24.98 143.24-27.15 147.24-27.15L147.24-27.15ZM178.63-13.85Q178.63-13.4 178.48-11.3L178.48-11.3 164.83-11.3Q165.03-7.2 166.26-5.58 167.48-3.95 169.73-3.95L169.73-3.95Q171.28-3.95 172.53-4.48 173.78-5 175.23-6.15L175.23-6.15 177.78-2.65Q174.28 0.75 169.38 0.75L169.38 0.75Q164.18 0.75 161.41-2.85 158.63-6.45 158.63-13L158.63-13Q158.63-19.55 161.28-23.35 163.93-27.15 168.78-27.15L168.78-27.15Q173.43-27.15 176.03-23.78 178.63-20.4 178.63-13.85L178.63-13.85ZM172.63-15.3L172.63-15.65Q172.63-19.4 171.73-21.13 170.83-22.85 168.83-22.85L168.83-22.85Q166.98-22.85 166.01-21.18 165.03-19.5 164.83-15.3L164.83-15.3 172.63-15.3Z" opacity="1" transform="matrix(1,0,0,1,0,0)" fill="#000000" class="wordmark-text-0" data-fill-palette-color="primary" id="text-0"></path></svg></g></svg></g></svg></g></svg></g><g><svg viewBox="0 0 140.35059300061752 140.35059300061752" height="140.35059300061752" width="140.35059300061752"><g><svg></svg></g><g id="icon-0"><svg viewBox="0 0 140.35059300061752 140.35059300061752" height="140.35059300061752" width="140.35059300061752"><g><path d="M0 70.175c0-38.757 31.419-70.175 70.175-70.175 38.757 0 70.175 31.419 70.176 70.175 0 38.757-31.419 70.175-70.176 70.176-38.757 0-70.175-31.419-70.175-70.176zM70.175 133.287c34.856 0 63.112-28.256 63.112-63.112 0-34.856-28.256-63.112-63.112-63.111-34.856 0-63.112 28.256-63.111 63.111 0 34.856 28.256 63.112 63.111 63.112z" data-fill-palette-color="accent" fill="#000000" stroke="transparent"></path><ellipse rx="69.47354353530567" ry="69.47354353530567" cx="70.17529650030876" cy="70.17529650030876" fill="#000000" stroke="transparent" stroke-width="0" fill-opacity="1" data-fill-palette-color="accent"></ellipse></g><g transform="matrix(1,0,0,1,32.02553578579153,32.03008441014941)"><svg viewBox="0 0 76.29952142903446 76.2904241803187" height="76.2904241803187" width="76.29952142903446"><g><svg xmlns="http://www.w3.org/2000/svg" xmlns:xlink="http://www.w3.org/1999/xlink" version="1.1" x="0" y="0" viewBox="0 0 99.99992306523872 99.988" enable-background="new 0 0 100 100" xml:space="preserve" height="76.2904241803187" width="76.29952142903446" class="icon-cg-0" data-fill-palette-color="quaternary" id="cg-0"><g fill="#ffffff" data-fill-palette-color="quaternary"><path fill-rule="evenodd" clip-rule="evenodd" d="M47.102 0c1.928 0 3.856 0 5.784 0 8.338 0.642 15.042 2.917 20.99 5.95-9.545 9.958-19.296 19.708-29.253 29.252-2.969-3.846-6.214-6.932-13.221-6.279-6.848 0.638-12.008 6.789-12.065 13.552-0.093 11.1 12.636 17.426 21.981 11.239 2.455-1.625 4.708-4.378 6.941-6.611 6.658-6.659 13.369-13.473 19.997-20.164 5.471 4.927 10.706 10.542 16.196 16.032 0.574 0.574 2.305 1.916 2.314 2.148 0.021 0.503-3.571 3.738-3.967 4.132-4.035 4.035-8.129 8.161-12.23 11.9-2.845-5.982-12.565-8.104-18.84-4.297-3.834 2.326-6.286 6.06-6.446 11.238-0.221 7.125 4.855 13.32 11.9 14.047 9.767 1.009 13.735-5.969 18.51-10.742 8.042-8.042 16.394-16.425 24.295-23.963 0.308 16.392-5.383 28.214-13.388 36.524-8.017 8.322-18.679 14.98-33.715 16.03-1.928 0-3.855 0-5.784 0-14.023-1.231-24.828-6.812-32.558-14.543C6.814 77.715 1.225 66.916 0 52.887c0-1.929 0-3.857 0-5.785C0.812 33.583 7.182 22 14.709 14.544 22.682 6.645 33.328 1.089 47.102 0z" fill="#ffffff" data-fill-palette-color="quaternary"></path></g></svg></g></svg></g></svg></g></svg></g></svg></g><defs></defs></svg><rect width="395.5199999999999" height="96.90350625322407" fill="none" stroke="none" visibility="hidden"></rect></g></svg></g></svg>