<svg xmlns="http://www.w3.org/2000/svg" version="1.1" xmlns:xlink="http://www.w3.org/1999/xlink" xmlns:svgjs="http://svgjs.dev/svgjs" width="128" height="128" viewBox="0 0 128 128"><g transform="matrix(0.8046875,0,0,0.8046875,12.760752631578946,12.754581158526612)"><svg viewBox="0 0 95 95" data-background-color="#ffffff" preserveAspectRatio="xMidYMid meet" height="128" width="128" xmlns="http://www.w3.org/2000/svg" xmlns:xlink="http://www.w3.org/1999/xlink"><g id="tight-bounds" transform="matrix(1,0,0,1,-0.24049999999999727,-0.23480786466046766)"><svg viewBox="0 0 95.481 95.46961572932095" height="95.46961572932095" width="95.481"><g><svg viewBox="0 0 95.481 95.46961572932095" height="95.46961572932095" width="95.481"><g><svg viewBox="0 0 95.481 95.46961572932095" height="95.46961572932095" width="95.481"><g id="textblocktransform"><svg viewBox="0 0 95.481 95.46961572932095" height="95.46961572932095" width="95.481" id="textblock"><g><svg viewBox="0 0 95.481 95.46961572932095" height="95.46961572932095" width="95.481"><g><svg viewBox="0 0 95.481 95.46961572932095" height="95.46961572932095" width="95.481"><g><svg xmlns="http://www.w3.org/2000/svg" xmlns:xlink="http://www.w3.org/1999/xlink" version="1.1" x="0" y="0" viewBox="0 0 99.99992306523872 99.988" enable-background="new 0 0 100 100" xml:space="preserve" height="95.46961572932095" width="95.481" class="icon-icon-0" data-fill-palette-color="accent" id="icon-0"><g fill="#000000" data-fill-palette-color="accent"><path fill-rule="evenodd" clip-rule="evenodd" d="M47.102 0c1.928 0 3.856 0 5.784 0 8.338 0.642 15.042 2.917 20.99 5.95-9.545 9.958-19.296 19.708-29.253 29.252-2.969-3.846-6.214-6.932-13.221-6.279-6.848 0.638-12.008 6.789-12.065 13.552-0.093 11.1 12.636 17.426 21.981 11.239 2.455-1.625 4.708-4.378 6.941-6.611 6.658-6.659 13.369-13.473 19.997-20.164 5.471 4.927 10.706 10.542 16.196 16.032 0.574 0.574 2.305 1.916 2.314 2.148 0.021 0.503-3.571 3.738-3.967 4.132-4.035 4.035-8.129 8.161-12.23 11.9-2.845-5.982-12.565-8.104-18.84-4.297-3.834 2.326-6.286 6.06-6.446 11.238-0.221 7.125 4.855 13.32 11.9 14.047 9.767 1.009 13.735-5.969 18.51-10.742 8.042-8.042 16.394-16.425 24.295-23.963 0.308 16.392-5.383 28.214-13.388 36.524-8.017 8.322-18.679 14.98-33.715 16.03-1.928 0-3.855 0-5.784 0-14.023-1.231-24.828-6.812-32.558-14.543C6.814 77.715 1.225 66.916 0 52.887c0-1.929 0-3.857 0-5.785C0.812 33.583 7.182 22 14.709 14.544 22.682 6.645 33.328 1.089 47.102 0z" fill="#000000" data-fill-palette-color="accent"></path></g></svg></g></svg></g></svg></g></svg></g></svg></g></svg></g><defs></defs></svg><rect width="95.481" height="95.46961572932095" fill="none" stroke="none" visibility="hidden"></rect></g></svg></g></svg>